<svg width="91" height="91" viewBox="0 0 91 91" fill="none" xmlns="http://www.w3.org/2000/svg">
<path d="M91 45.5C91 70.629 70.629 91 45.5 91C20.371 91 0 70.629 0 45.5C0 20.371 20.371 0 45.5 0C70.629 0 91 20.371 91 45.5Z" fill="#2A2A2A"/>
<path fill-rule="evenodd" clip-rule="evenodd" d="M45.5 87C68.4198 87 87 68.4198 87 45.5C87 22.5802 68.4198 4 45.5 4C22.5802 4 4 22.5802 4 45.5C4 68.4198 22.5802 87 45.5 87ZM45.5 91C70.629 91 91 70.629 91 45.5C91 20.371 70.629 0 45.5 0C20.371 0 0 20.371 0 45.5C0 70.629 20.371 91 45.5 91Z" fill="#727272"/>
<path fill-rule="evenodd" clip-rule="evenodd" d="M36.311 34.4599H54.6892C54.1216 29.5003 50.1321 25.811 45.5001 25.811C40.8681 25.811 36.8786 29.5003 36.311 34.4599ZM58.8498 34.4599H58.8496C58.6468 32.0143 57.8393 29.7345 56.5777 27.797C57.8394 29.7345 58.6469 32.0143 58.8498 34.4599ZM59.3386 34.4599C58.7487 27.1183 52.8771 21.1819 45.5001 21.1819C38.1231 21.1819 32.2515 27.1183 31.6616 34.4599H30.1819C26.8682 34.4599 24.1819 37.1462 24.1819 40.4599V57.6963C24.1819 61.01 26.8682 63.6963 30.1819 63.6963H60.8182C64.1319 63.6963 66.8182 61.01 66.8182 57.6963V40.4599C66.8182 37.1462 64.1319 34.4599 60.8182 34.4599H59.3386ZM35.8208 34.4599H35.8206C36.3913 29.2466 40.5812 25.3235 45.4999 25.3235C48.313 25.3235 50.8877 26.6067 52.6833 28.6806C50.8877 26.6068 48.3131 25.3237 45.5001 25.3237C40.5814 25.3237 36.3916 29.2467 35.8208 34.4599ZM47.3273 51.1041C48.7678 50.4198 49.7637 48.9515 49.7637 47.2507C49.7637 44.896 47.8548 42.9871 45.5 42.9871C43.1453 42.9871 41.2364 44.896 41.2364 47.2507C41.2364 48.9515 42.2323 50.4197 43.6727 51.104V53.3416C43.6727 54.3508 44.4908 55.1689 45.5 55.1689C46.5092 55.1689 47.3273 54.3508 47.3273 53.3416V51.1041Z" fill="white"/>
</svg>
