<svg xmlns="http://www.w3.org/2000/svg" width="44" height="44" viewBox="0 0 44 44">
    <g fill="none" fill-rule="evenodd">
        <g>
            <g>
                <path d="M0 0L44 0 44 44 0 44z" transform="translate(-456 -612) translate(456 612)"/>
                <path fill="#E5E5E5" fill-rule="nonzero" d="M28.239 18.265c.338.344.348.894.029 1.25l-5.637 5.72c-.339.343-.881.353-1.231.03l-5.639-5.72c-.348-.353-.348-.926 0-1.28.339-.343.882-.353 1.232-.03L22 23.316l4.977-5.05c.338-.343.881-.353 1.231-.03l.03.03z" transform="translate(-456 -612) translate(456 612)"/>
            </g>
        </g>
    </g>
</svg>
