<svg xmlns="http://www.w3.org/2000/svg" width="22" height="26" viewBox="0 0 22 26">
    <g fill="none" fill-rule="evenodd">
        <g>
            <g>
                <path d="M0 0H22V26H0z" transform="translate(-1091 -648) translate(1091 648)"/>
                <path fill="#FFF" stroke="#000" d="M11 2.5c2.9 0 5.524 1.175 7.425 3.075 1.9 1.9 3.075 4.526 3.075 7.425 0 2.9-1.175 5.524-3.075 7.425-1.9 1.9-4.526 3.075-7.425 3.075-2.9 0-5.524-1.175-7.425-3.075C1.675 18.525.5 15.899.5 13c0-2.9 1.175-5.524 3.075-7.425C5.475 3.675 8.101 2.5 11 2.5h0z" transform="translate(-1091 -648) translate(1091 648)"/>
                <path stroke="#000" stroke-linecap="round" d="M11 8L11 18" transform="translate(-1091 -648) translate(1091 648)"/>
                <path stroke="#000" stroke-linecap="round" d="M11 8L11 18" transform="translate(-1091 -648) translate(1091 648) rotate(-90 11 13)"/>
            </g>
        </g>
    </g>
</svg>
