<svg xmlns="http://www.w3.org/2000/svg" width="38" height="37" viewBox="0 0 38 37">
    <g fill="none" fill-rule="evenodd">
        <g>
            <g>
                <g>
                    <g>
                        <g>
                            <g>
                                <path d="M0 0H37V37H0z" transform="translate(-407 -656) translate(0 -131) translate(20 351) translate(24 162) translate(363.5 274)"/>
                            </g>
                            <path fill="#FFF" fill-rule="nonzero" d="M21.179 8.2c.796.006 1.228.094 1.677.335.433.231.777.576 1.009 1.008.24.45.329.881.334 1.677V13h1.78c.768.006 1.197.088 1.63.31l.047.025c.433.231.777.576 1.009 1.008.24.45.329.881.334 1.677v9.872c0 .852-.086 1.299-.334 1.764-.232.433-.576.777-1.009 1.009-.449.24-.88.329-1.677.334h-9.872c-.852 0-1.299-.086-1.764-.334-.432-.232-.777-.576-1.008-1.009-.24-.449-.33-.88-.335-1.677v-1.78h-1.693c-.823 0-1.267-.08-1.716-.31l-.048-.024c-.432-.232-.777-.576-1.008-1.009-.24-.449-.33-.88-.335-1.677V11.22c.006-.796.094-1.228.335-1.677.231-.432.576-.777 1.008-1.008.45-.24.881-.33 1.677-.335h9.959zm4.777 6.4h-9.913l-.18.002-.105.004-.094.004-.085.007-.095.01-.017.003-.066.01c-.075.014-.137.032-.194.054l-.041.018-.046.022-.022.012c-.139.074-.247.175-.327.307l-.025.045-.012.021-.02.044-.02.045-.017.047-.008.024-.014.052-.006.028-.006.028-.01.062-.006.033-.008.072-.003.038-.006.083-.005.092-.004.158-.001.118v9.913l.002.18.004.105.004.095.007.085.01.094.003.018.01.065c.014.075.032.137.054.194l.018.042.022.045.012.023c.074.138.175.246.307.326l.045.026.021.011.044.021.045.02.047.016.024.008.052.014.028.007.028.006.062.01.033.005.072.008.038.004.083.006.092.004.158.004.118.002h9.913l.119-.002.157-.004.047-.002.088-.005.079-.007.071-.008.033-.005.062-.01.029-.006.027-.007.052-.014.025-.008.047-.017.044-.019.044-.02.022-.012c.138-.074.246-.176.326-.307l.026-.045.011-.022.021-.044.02-.044.016-.047.008-.025.014-.052.007-.027.006-.029.01-.062.005-.033.008-.071.004-.039.006-.083.004-.092.004-.157.002-.119v-9.913l-.002-.118-.004-.158-.002-.047-.005-.087-.007-.08-.008-.07-.005-.034-.01-.062-.006-.028-.007-.028-.014-.052-.008-.024-.017-.047-.019-.045-.02-.044-.012-.021c-.074-.139-.176-.247-.307-.327l-.045-.025-.022-.012-.044-.02-.044-.02-.047-.017-.025-.008-.052-.014-.027-.006-.029-.006-.062-.01-.033-.006-.071-.008-.039-.003-.083-.006-.092-.005-.157-.004-.119-.001zM21.275 9.8l-.119-.001h-9.913l-.18.002-.105.004-.094.004-.085.007-.095.01-.017.003-.066.01c-.075.014-.137.032-.194.054l-.041.018-.046.022-.022.012c-.139.074-.247.175-.327.307l-.031.056-.006.01-.02.044-.02.045-.017.047-.008.024-.014.052-.006.028-.006.028-.01.062-.006.033-.008.072-.003.038-.006.083-.005.092-.004.158-.001.118v9.913l.002.18.004.105.004.095.007.085.01.094.003.018.01.065c.014.075.032.137.054.194l.018.042.022.045.012.023c.074.138.175.246.307.326l.056.032.01.005.044.021.045.02.047.016.024.008.052.014.028.007.028.006.062.01.033.005.072.008.038.004.083.006.092.004.158.004.118.002H13v-6.58c.006-.767.088-1.196.31-1.629l.025-.048c.231-.432.576-.777 1.008-1.008.45-.24.881-.33 1.677-.335H22.6v-1.875l-.005-.158-.002-.047-.005-.087-.007-.08-.008-.07-.005-.034-.01-.062-.006-.028-.007-.028-.014-.052-.008-.024-.017-.047-.019-.045-.02-.044-.012-.021c-.074-.139-.176-.247-.307-.327l-.056-.031-.011-.006-.044-.02-.044-.02-.047-.017-.025-.008-.052-.014-.027-.006-.029-.006-.062-.01-.033-.006-.071-.008-.039-.003-.083-.006-.092-.005-.157-.004z" transform="translate(-407 -656) translate(0 -131) translate(20 351) translate(24 162) translate(363.5 274)"/>
                        </g>
                    </g>
                </g>
            </g>
        </g>
    </g>
</svg>
