<svg xmlns="http://www.w3.org/2000/svg" width="180" height="180" viewBox="0 0 180 180">
    <g fill="none" fill-rule="evenodd">
        <rect width="180" height="180" fill="#610E9B" rx="30"/>
        <rect width="168" height="164" x="5" fill="#A649E8" rx="30"/>
        <rect width="168" height="160" x="5" fill="#9938DC" rx="30"/>
        <rect width="173" height="173" x="3.5" y="3.5" stroke="#000" stroke-width="7" rx="30"/>
        <circle cx="16" cy="25" r="3" fill="#FFF"/>
        <rect width="14" height="8" x="18" y="13" fill="#FFF" rx="4" transform="rotate(-41 25 17)"/>
        <g fill="#FFF">
            <path d="M33 0c2.734 0 4.95 2.216 4.95 4.95v23.1h23.1c2.734 0 4.95 2.216 4.95 4.95s-2.216 4.95-4.95 4.95h-23.1v23.1c0 2.734-2.216 4.95-4.95 4.95s-4.95-2.216-4.95-4.95v-23.1H4.95C2.216 37.95 0 35.734 0 33s2.216-4.95 4.95-4.95h23.1V4.95C28.05 2.216 30.266 0 33 0z" transform="translate(57 57)"/>
        </g>
    </g>
</svg>
