<svg xmlns="http://www.w3.org/2000/svg" width="167" height="167" viewBox="0 0 167 167">
    <g fill="none" fill-rule="evenodd">
        <circle cx="83.432" cy="83.432" r="80.932" stroke="#FEAF15" stroke-width="5"/>
        <path fill="#FFF" fill-opacity=".399" fill-rule="nonzero" d="M83.676 49.896c1.597 0 2.903 1.249 2.995 2.824l.005.176v26.8h25c1.657 0 3 1.343 3 3 0 1.598-1.25 2.904-2.824 2.995l-.176.005h-25v24.8c0 1.657-1.343 3-3 3-1.598 0-2.904-1.249-2.995-2.824l-.005-.176v-24.8h-26c-1.657 0-3-1.343-3-3 0-1.598 1.249-2.904 2.823-2.995l.177-.005h26v-26.8c0-1.657 1.343-3 3-3z"/>
    </g>
</svg>
