<svg xmlns="http://www.w3.org/2000/svg" width="104" height="104" viewBox="0 0 104 104">
    <path fill="#FFF" d="M41.225.544c8.515 5.92 12.945 9.051 13.292 9.393l.013.014 1.21.855c.425.301.55.87.306 1.317l-.063.1L45.72 26.737c-.454.643-1.145 1.08-1.92 1.212-.777.133-1.573-.047-2.216-.502-.642-.454-1.078-1.145-1.211-1.92-.121-.706.017-1.428.384-2.037l.117-.179 5.593-7.91C24.873 18.453 9.316 37.688 10.847 59.444c1.53 21.757 19.627 38.624 41.438 38.622 1.638 0 2.967 1.328 2.967 2.967S53.923 104 52.285 104c-24.61.003-45.142-18.803-47.293-43.32-2.13-24.27 14.454-46.168 38.3-50.76l.725-.134L37.8 5.39c-.865-.612-1.339-1.64-1.241-2.695.097-1.055.75-1.979 1.713-2.423.962-.443 2.089-.34 2.954.272zm40.477 89.36c.48.625.691 1.416.587 2.197-.104.781-.514 1.49-1.141 1.967-4.442 3.418-9.46 6.014-14.816 7.665l-.05.02-.05.02-.068.02v-.01c-.26.079-.53.119-.802.119-1.306.006-2.46-.847-2.838-2.097-.088-.289-.131-.589-.129-.89 0-1.3.853-2.445 2.097-2.82 4.715-1.45 9.133-3.731 13.046-6.735 1.31-.96 3.144-.721 4.164.544zm14.756-27.308c1.6.335 2.63 1.9 2.305 3.502-1.151 5.527-3.285 10.804-6.3 15.577-.706 1.11-2.059 1.623-3.323 1.26-1.265-.364-2.138-1.517-2.147-2.832-.008-.567.15-1.124.455-1.602 2.635-4.17 4.498-8.78 5.5-13.61.358-1.588 1.912-2.604 3.51-2.295zM52 33.366c1.958 0 3.562 1.515 3.704 3.437l.01.277-.002 18.33 16.903 10.186c1.669 1.006 2.263 3.117 1.41 4.831l-.146.268c-1.006 1.669-3.117 2.263-4.831 1.41l-.268-.146-18.697-11.27c-1.03-.62-1.69-1.696-1.785-2.882l-.012-.299V37.08c0-2.052 1.663-3.715 3.714-3.715zm41.857.053c2.732 4.94 4.554 10.33 5.38 15.914.024.147.037.296.04.445-.016 1.462-1.087 2.697-2.532 2.918-.147.028-.296.041-.445.04-1.466-.008-2.709-1.082-2.928-2.532-.725-4.88-2.32-9.59-4.707-13.906-.246-.431-.376-.919-.377-1.415-.009-1.358.903-2.55 2.216-2.894 1.314-.345 2.694.243 3.353 1.43zM67.776 11.67c.354.003.705.067 1.038.188 5.289 1.962 10.183 4.856 14.45 8.545.655.563 1.03 1.383 1.03 2.245.003.713-.254 1.402-.723 1.939-.564.652-1.383 1.028-2.245 1.029-.634.002-1.25-.203-1.755-.58l-.164-.132-.02-.01-.02-.016-.02-.024-.019-.01c-3.722-3.2-7.981-5.715-12.58-7.428-1.167-.432-1.94-1.545-1.94-2.789.008-.347.072-.691.188-1.018.437-1.16 1.541-1.93 2.78-1.939z"/>
</svg>
