<svg xmlns="http://www.w3.org/2000/svg" width="104" height="104" viewBox="0 0 104 104">
    <g fill="none" fill-rule="evenodd">
        <g fill="#FFF">
            <g transform="translate(-1806.000000, -2958.000000) translate(1806.000000, 2958.000000)">
                <path fill-rule="nonzero" d="M42.834 61.286h16.475c1.24 0 2.246-.967 2.246-2.16V43.29H72.04c.87 0 1.66-.122 2.032-.878.371-.756.255-1.65-.298-2.295L52.806 15.643c-.427-.497-1.064-.786-1.735-.786-.67 0-1.307.289-1.733.787L28.37 40.118c-.553.645-.67 1.539-.297 2.295.37.755 1.161.877 2.03.877h10.484v15.836c0 1.193 1.006 2.16 2.247 2.16z"/>
                <rect width="83.571" height="16.714" x="9.286" y="72.429" rx="2.7"/>
            </g>
        </g>
    </g>
</svg>
