<svg xmlns="http://www.w3.org/2000/svg" width="104" height="104" viewBox="0 0 104 104">
    <path fill="#FFF" d="M44.14 51.703l-5.977 5.966c-3.902-1.005-8.051.064-10.949 2.962l-6.864 6.854c-4.438 4.448-4.438 11.708 0 16.156 4.448 4.437 11.708 4.448 16.156 0l6.854-6.865c2.876-2.865 3.967-7.046 2.962-10.949l5.966-5.966c3.839 7.378 2.47 16.488-3.443 22.4l-6.854 6.865c-7.463 7.453-19.663 7.453-27.116 0-7.453-7.452-7.453-19.674 0-27.127l6.854-6.853c5.924-5.913 15.066-7.25 22.411-3.443zm27.897-14.264l-34.6 34.6c-3.615 3.604-9.09-1.87-5.486-5.485l34.6-34.6c3.615-3.604 9.09 1.87 5.486 5.485zm17.076-22.561c7.463 7.463 7.474 19.653 0 27.116l-6.854 6.854c-5.924 5.934-15.034 7.25-22.4 3.453l5.955-5.966c3.881 1.016 8.105-.107 10.96-2.972l6.864-6.854c4.438-4.438 4.438-11.709 0-16.146-4.448-4.448-11.708-4.448-16.156 0l-6.854 6.854c-2.876 2.876-3.988 7.046-2.972 10.96L51.7 44.143c-3.807-7.356-2.48-16.488 3.443-22.411l6.854-6.854c7.463-7.464 19.674-7.453 27.116 0z"/>
</svg>
