<svg xmlns="http://www.w3.org/2000/svg" width="104" height="104" viewBox="0 0 104 104">
    <g fill="none" fill-rule="evenodd">
        <g fill="#FFF">
            <g>
                <path fill-rule="nonzero" d="M85.057 13c1.958 0 3.562 1.515 3.704 3.437l.01.277V44.98c0 2.051-1.663 3.714-3.714 3.714-1.958 0-3.563-1.515-3.704-3.437l-.01-.277-.002-24.551H63.605l.002 72.428c0 1.037-.425 1.975-1.11 2.65-.948 1.722-2.78 2.89-4.886 2.89H34.304c-.053 0-.107-.002-.16-.004l-.159.003H10.68c-3.077 0-5.572-2.494-5.572-5.571V65.352c0-3.077 2.495-5.571 5.572-5.571l19.91-.001V44.513c0-3.004 2.378-5.453 5.353-5.568l.22-.004h20.016V16.714c0-1.958 1.516-3.562 3.437-3.704l.278-.01h25.164zM30.27 67.208H12.536v23.759H30.27V67.208zM55.753 46.37H38.018v44.598h17.735V46.369z" transform="translate(-1806.000000, -3276.000000) translate(1806.000000, 3276.000000)"/>
                <path d="M95.622 73.667c1.459 0 1.984-1.006 1.113-2.247L86.376 56.654c-.887-1.265-2.282-1.24-3.152 0L72.864 71.42c-.887 1.265-.372 2.247 1.114 2.247h5.417v22.01c0 1.52 1.198 2.752 2.728 2.752h5.354c1.507 0 2.728-1.251 2.728-2.752v-22.01h5.417z" transform="translate(-1806.000000, -3276.000000) translate(1806.000000, 3276.000000) translate(84.793233, 77.071429) scale(1, -1) rotate(-360.000000) translate(-84.793233, -77.071429)"/>
            </g>
        </g>
    </g>
</svg>
