<svg xmlns="http://www.w3.org/2000/svg" width="104" height="104" viewBox="0 0 104 104">
    <path fill="#FFF" d="M65.796 14.857c5.769 0 10.202 4.674 10.343 10.839l.004.304v52c0 6.212-4.34 10.987-10.064 11.14l-.283.003H38.204c-5.769 0-10.202-4.674-10.343-10.839L27.857 78V26c0-6.212 4.34-10.987 10.064-11.14l.283-.003h27.592zm0 7.429H38.204c-2.003 0-3.36 1.391-3.445 3.5l-.004.214v52c0 2.157 1.292 3.618 3.251 3.71l.198.004h27.592c2.003 0 3.36-1.391 3.445-3.5l.004-.214V26c0-2.229-1.38-3.714-3.45-3.714zm-45.774 4.786c1.46.486 2.249 2.064 1.762 3.523-2.382 7.148-3.571 14.28-3.571 21.405 0 7.125 1.189 14.257 3.571 21.405.487 1.46-.302 3.037-1.762 3.523-1.46.487-3.037-.302-3.523-1.761-2.57-7.71-3.857-15.435-3.857-23.167 0-7.732 1.287-15.458 3.857-23.167.486-1.46 2.064-2.248 3.523-1.761zm63.956 0c1.46-.487 3.037.302 3.524 1.761 2.57 7.71 3.857 15.435 3.857 23.167 0 7.732-1.287 15.458-3.857 23.167-.487 1.46-2.064 2.248-3.524 1.761-1.46-.486-2.248-2.064-1.762-3.523C84.6 66.257 85.788 59.125 85.788 52c0-7.125-1.189-14.257-3.572-21.405-.486-1.46.303-3.037 1.762-3.523zM55.45 66.857c2.07 0 3.449 1.486 3.449 3.714 0 2.157-1.292 3.618-3.25 3.71l-.199.005h-6.898c-2.07 0-3.449-1.486-3.449-3.715 0-2.156 1.292-3.617 3.25-3.71l.199-.004h6.898zM8.309 32.643c1.46.486 2.249 2.064 1.762 3.524-1.078 3.234-1.664 8.24-1.71 14.948L8.356 52c0 7.155.59 12.459 1.714 15.833.487 1.46-.302 3.038-1.762 3.524-1.46.487-3.037-.302-3.523-1.762-1.293-3.877-1.943-9.389-1.997-16.601L2.786 52c0-7.702.649-13.541 2-17.595.486-1.46 2.064-2.249 3.523-1.762zm87.382 0c1.46-.487 3.037.302 3.524 1.762 1.351 4.054 2 9.893 2 17.595l-.004.994c-.054 7.212-.704 12.724-1.996 16.601-.487 1.46-2.064 2.249-3.524 1.762-1.46-.486-2.248-2.064-1.762-3.524 1.125-3.374 1.715-8.678 1.715-15.833l-.003-.885c-.047-6.709-.634-11.714-1.712-14.948-.486-1.46.303-3.038 1.762-3.524z"/>
</svg>
