<svg xmlns="http://www.w3.org/2000/svg" width="104" height="104" viewBox="0 0 104 104">
    <path fill="#FFF" fill-rule="evenodd" d="M51.088 14.857c5.257 0 9.518 4.265 9.518 9.524v25.485s1.075.122 2.346.31c3.639.54 7.282 1.336 10.708 2.447 7.221 2.344 12.568 5.764 15.177 10.677 2.257 4.25 2.617 10.248 1.597 17.634-.521 3.77-1.39 7.763-2.508 11.837-.66 2.401-1.365 4.684-2.072 6.777-.248.735-.904 2.567-.956 2.702-.402 1.054-1.413 1.75-2.54 1.75H41.573c-.83 0-1.616-.38-2.132-1.031L13.611 70.34c-.713-.901-.783-2.154-.174-3.128l1.033-1.652c4.047-6.476 12.304-7.878 18.27-3.106l7.47 5.977.004-44.052c0-5.257 4.261-9.523 9.518-9.523zm0 5.438h-1.356c-2.252 0-4.08 1.83-4.08 4.085v49.712c0 2.28-2.638 3.547-4.418 2.123L29.342 66.7c-3.425-2.74-7.938-1.974-10.26 1.742l23.817 30.12h37.487s.08-.056.316-.754c.675-1.998 1.35-4.183 1.98-6.477 1.06-3.862 1.88-7.63 2.365-11.142.877-6.35.578-11.346-1.012-14.34-1.8-3.388-6.047-6.105-12.054-8.054-3.107-1.009-6.464-1.743-9.826-2.24-1.178-.175-2.271-.307-3.249-.402-.577-.057-.981-.088-1.181-.1-1.436-.086-2.557-1.276-2.557-2.714V24.38c0-2.257-1.827-4.086-4.08-4.086zM50.143 0C61.425 0 70.57 9.146 70.57 20.429c0 5.776-2.397 10.992-6.25 14.707V24.381c0-7.31-5.924-13.238-13.233-13.238h-1.356l-.446.007c-7.101.235-12.787 6.07-12.787 13.23l-.001 11.252c-4.165-3.74-6.784-9.166-6.784-15.203C29.714 9.146 38.86 0 50.143 0z"/>
</svg>
