<svg xmlns="http://www.w3.org/2000/svg" width="104" height="104" viewBox="0 0 104 104">
    <path fill="#FFF" fill-rule="evenodd" d="M51.117 1.857c5.914 0 10.708 4.798 10.708 10.715v28.67s1.209.138 2.639.35c4.094.606 8.192 1.502 12.046 2.752 8.124 2.636 14.14 6.485 17.075 12.011 2.539 4.781 2.944 11.53 1.796 19.839-.586 4.241-1.563 8.733-2.821 13.316-.742 2.702-1.536 5.27-2.33 7.625-.28.826-1.019 2.887-1.077 3.039-.452 1.186-1.589 1.969-2.858 1.969H40.413c-.935 0-1.818-.428-2.398-1.16L8.955 64.277c-.802-1.014-.88-2.423-.195-3.52l1.162-1.858c4.553-7.286 13.842-8.863 20.553-3.494l8.405 6.723.003-49.558c0-5.914 4.795-10.713 10.708-10.713zm0 6.118h-1.526c-2.533 0-4.59 2.058-4.59 4.595v55.926c0 2.565-2.967 3.99-4.97 2.388L26.653 60.182c-3.854-3.084-8.93-2.222-11.544 1.959l26.796 33.884h42.173s.09-.062.355-.847c.759-2.248 1.519-4.706 2.227-7.287 1.193-4.344 2.115-8.584 2.66-12.535.988-7.144.65-12.763-1.138-16.131-2.025-3.813-6.803-6.87-13.56-9.062-3.496-1.134-7.273-1.96-11.054-2.52-1.326-.196-2.556-.345-3.656-.452-.65-.064-1.103-.099-1.329-.112-1.615-.097-2.876-1.435-2.876-3.054V12.572c0-2.54-2.056-4.597-4.59-4.597zM17.99 8.81v3.066h12.235c.845 0 1.53.678 1.53 1.544v3.03c0 .852-.696 1.544-1.53 1.544H17.989v3.065c0 .826-.56 1.123-1.25.63l-8.207-5.862c-.704-.503-.69-1.292 0-1.784l8.207-5.863c.704-.503 1.25-.21 1.25.63zm64.96 0c0-.84.546-1.133 1.249-.63l8.208 5.863c.69.492.703 1.281 0 1.784l-8.208 5.863c-.69.492-1.249.195-1.249-.63v-3.066H70.714c-.834 0-1.53-.692-1.53-1.544v-3.03c0-.866.685-1.544 1.53-1.544h12.235z"/>
</svg>
