<svg xmlns="http://www.w3.org/2000/svg" width="104" height="104" viewBox="0 0 104 104">
    <g fill="none" fill-rule="evenodd">
        <g fill="#FFF">
            <g>
                <path d="M94.714 31.64c-.004.714-.335 1.388-.902 1.831L76.046 51.483c-.418.332-.936.514-1.472.517-.353-.002-.702-.082-1.02-.235-.824-.388-1.35-1.21-1.353-2.113v-8.34H54.373c-1.31 0-2.373-1.051-2.373-2.348v-14.65c0-1.296 1.062-2.348 2.373-2.348h17.662v-8.339c-.056-.964.49-1.863 1.375-2.268.886-.404 1.931-.231 2.636.436l17.837 18.013c.54.456.845 1.128.83 1.831z" transform="translate(-1806.000000, -4230.000000) translate(1806.000000, 4230.000000) translate(73.357143, 31.571429) rotate(-44.000000) translate(-73.357143, -31.571429)"/>
                <path d="M52 74.354c-.004.714-.336 1.388-.902 1.831L33.33 94.198c-.417.331-.936.513-1.47.516-.355-.002-.703-.082-1.021-.235-.824-.388-1.35-1.21-1.353-2.113v-8.34H11.66c-1.31 0-2.373-1.05-2.373-2.348v-14.65c0-1.296 1.062-2.347 2.373-2.347H29.32v-8.34c-.056-.963.489-1.863 1.375-2.268.885-.404 1.93-.231 2.635.437L51.17 72.522c.54.457.845 1.129.83 1.832z" transform="translate(-1806.000000, -4230.000000) translate(1806.000000, 4230.000000) translate(30.642857, 74.285714) scale(-1, -1) rotate(-44.000000) translate(-30.642857, -74.285714)"/>
            </g>
        </g>
    </g>
</svg>
