<svg xmlns="http://www.w3.org/2000/svg" width="104" height="104" viewBox="0 0 104 104">
    <path fill="#FFF" d="M40.497 15.916c.754-3.034 4.65-3.803 6.52-1.407l.175.241L62.69 37.994l14.567-16.939c2.19-2.547 6.312-1.1 6.522 2.158l.008.284-.117 21.331 12.147-2.519c2.803-.582 5.144 2.08 4.3 4.745l-.091.257-8.865 22.423c-.754 1.907-2.912 2.842-4.82 2.088-1.817-.718-2.751-2.71-2.185-4.545l.097-.275 6.333-16.023-9.898 2.056c-2.225.462-4.315-1.16-4.46-3.387l-.009-.27.084-15.822-11.17 12.992c-1.537 1.787-4.3 1.696-5.729-.115l-.178-.246-13.548-20.316-5.797 23.344c-.371 1.495-1.622 2.594-3.129 2.788l-.304.027-17.035.784 12.817 12.94c1.518 1.532 1.406 4.007-.184 5.402l-.237.192L17.332 82.12l13.738 1.375c1.948.194 3.393 1.862 3.343 3.788l-.017.277c-.195 1.948-1.862 3.394-3.789 3.344l-.277-.018L7.058 88.56c-3.276-.327-4.497-4.4-2.078-6.49l.23-.185L23.94 67.94 8.253 52.105c-2.197-2.217-.836-5.942 2.18-6.3l.287-.024 22.617-1.045 7.16-28.82z"/>
</svg>
