<svg xmlns="http://www.w3.org/2000/svg" width="104" height="104" viewBox="0 0 104 104">
    <path fill="#FFF" d="M6.303 18.332c11.472 3.707 22.08 11.826 31.847 24.223 5.508 6.991 9.606 14.398 12.28 22.202l.235.707.089-.146c2.716-4.42 6.334-8.499 10.836-12.216l.718-.584c2.001-1.603 4.923-1.28 6.526.721 1.603 2.002 1.28 4.924-.721 6.527-8.703 6.97-13.302 15.108-14.037 24.627-.447 5.787-8.965 5.68-9.266-.116-.677-13.043-5.304-24.997-13.954-35.976C22.154 37.257 13.01 30.257 3.448 27.168c-2.44-.788-3.779-3.405-2.99-5.845.788-2.44 3.405-3.78 5.845-2.991zm78.894-3.01c10.257 0 18.572 8.314 18.572 18.57 0 10.258-8.315 18.572-18.572 18.572-10.256 0-18.571-8.314-18.571-18.571 0-10.257 8.315-18.572 18.571-18.572zm0 7.428c-6.154 0-11.143 4.989-11.143 11.143 0 6.154 4.99 11.143 11.143 11.143 6.154 0 11.143-4.99 11.143-11.143 0-6.154-4.989-11.143-11.143-11.143z"/>
</svg>
