<svg xmlns="http://www.w3.org/2000/svg" width="104" height="104" viewBox="0 0 104 104">
    <path fill="#FFF" d="M33.674 61.283c1.051 1.927 2.715 3.416 4.817 4.38l4.029 1.926L27.544 91.06c-.964 1.664-2.803 2.54-4.554 2.54-.964 0-2.015-.263-2.89-.876-2.54-1.664-3.24-4.992-1.664-7.532zm16.815-35.47c2.715-.174 5.518.526 7.795 2.015l7.795 5.08c2.014 1.313 3.59 3.153 4.554 5.342l3.24 7.357 6.744-1.84c2.452-.7 4.904.701 5.605 3.153.7 2.365-.7 4.905-3.153 5.693l-10.51 2.89c-.438.088-.788.175-1.226.175-1.751 0-3.415-1.05-4.116-2.715l-3.678-8.32-7.357 10.86 10.685 4.992c1.489.7 2.54 2.014 2.977 3.59.438 1.577.088 3.241-.875 4.555L56.532 85.63c-1.05 1.402-2.715 2.19-4.379 2.19-1.138 0-2.277-.35-3.24-1.051-2.365-1.752-2.89-5.167-1.138-7.62l8.582-11.648-15.326-7.181c-1.401-.613-2.452-1.84-2.89-3.24-.438-1.402-.263-2.978.438-4.292l9.896-17.69-6.831.525-6.568 7.707c-1.664 1.926-4.467 2.19-6.394.525-1.926-1.664-2.19-4.466-.525-6.393l7.794-9.196c.789-.876 1.84-1.489 3.066-1.576zM70.195 10.4c5.272 0 9.546 4.274 9.546 9.546 0 5.272-4.274 9.546-9.546 9.546-5.272 0-9.546-4.274-9.546-9.546 0-5.272 4.274-9.546 9.546-9.546z"/>
</svg>
