<svg xmlns="http://www.w3.org/2000/svg" width="104" height="104" viewBox="0 0 104 104">
    <path fill="#FFF" d="M40.024 50.666c1.784-1.314 4.132-1.408 6.01-.187 1.878 1.22 2.817 3.38 2.348 5.54l-1.315 6.667h26.951c2.066 0 3.945-.845 5.26-2.347l4.507-5.259c1.22-1.409 3.005-1.878 4.695-1.22 1.69.563 2.817 2.16 2.723 3.943v9.954c0 9.203-7.418 16.622-16.621 16.622H47.067l1.315 6.667c.47 2.16-.47 4.32-2.348 5.54-.845.564-1.878.846-2.817.846-1.127 0-2.254-.376-3.193-1.033L14.951 77.805c-1.409-.939-2.16-2.535-2.16-4.225 0-1.69.845-3.193 2.16-4.226zm3.287 4.132c-.188-.094-.188 0-.282 0L17.956 73.392s-.094.094-.094.188.094.187.094.187l25.073 18.594c.094 0 .094.094.282 0 .094-.094.094-.188.094-.282l-1.972-9.672c-.094-.751.094-1.503.563-2.066.47-.563 1.221-.94 1.972-.94h30.708c6.385 0 11.55-5.164 11.55-11.55h-.094v-7.794l-3.098 3.569c-2.254 2.629-5.541 4.131-9.016 4.131h-30.05c-.751 0-1.502-.375-1.972-.939-.563-.563-.751-1.314-.563-2.066l1.972-9.672c0-.094.094-.188-.094-.282zm15.213-43.01c-.564-2.628 2.441-4.507 4.601-2.91l26.576 19.72c1.596 1.127 1.596 3.569 0 4.696l-26.576 19.72c-2.16 1.596-5.165-.282-4.601-2.911l2.066-10.33H28.755c-2.817 0-5.634 1.315-7.512 3.475l-4.883 5.634c-1.127 1.315-3.193.47-3.193-1.22V36.955c0-8.264 6.667-14.931 14.931-14.931H60.59z"/>
</svg>
