<?xml version="1.0" encoding="UTF-8"?>
<svg width="105px" height="66px" viewBox="0 0 105 66" version="1.1" xmlns="http://www.w3.org/2000/svg" xmlns:xlink="http://www.w3.org/1999/xlink">
    <title>Action Icon / revive Copy</title>
    <g id="design-system" stroke="none" stroke-width="1" fill="none" fill-rule="evenodd">
        <g id="Group" transform="translate(0.000000, -20.000000)" fill="#FFFFFF" fill-rule="nonzero">
            <g id="Action-Icon-/-revive-Copy">
                <path d="M52.5732202,31.2701163 C56.4757438,26.6955968 61.1073561,24.5109393 66.3603149,24.9937701 C76.5648185,25.931727 84.7518262,34.8551427 85.4120254,47.2281332 L85.9134561,47.2294377 L86.8856526,47.2544677 L87.9623051,47.3028493 C92.8492702,47.5616819 98.6576124,50.9326281 105.588727,57.2992544 C106.164547,57.828178 106.463195,58.6071777 106.393039,59.3972437 C106.154456,62.0841032 104.705594,64.3449854 102.236638,66.0881861 L101.911758,66.3064188 C100.613537,67.134365 99.2703885,67.4671917 97.9482759,67.3296764 C97.8350594,67.343502 97.7203545,67.3478632 97.6055848,67.3432292 L97.5573682,67.5689825 C97.1476065,69.3465786 96.2042611,70.754522 94.6783725,71.6984332 L94.2466954,71.9501182 C92.646846,72.8273353 90.8608284,73.2031872 88.9281729,73.0955708 L88.4288937,73.0549694 L88.2713672,73.2696837 C86.4225088,75.6830467 83.9910659,77.0552696 81.0774807,77.2590073 C78.7214457,77.4237574 76.0040097,76.9635992 72.9021678,75.9026639 L72.391524,76.3842871 L71.6727056,77.044425 L70.4397698,78.1447713 L68.9484656,79.4480427 C65.0575251,82.8277741 59.8020026,85.6305761 53.1892121,87.8984574 C52.5228752,88.1269801 51.8004086,88.1283736 51.1332076,87.902423 C44.4573831,85.641625 39.1613068,82.8356052 35.2613507,79.4480427 L35.2613507,79.4480427 L34.2344004,78.5527169 L32.9244316,77.3935736 L31.8182923,76.3842871 L31.1537053,75.7553733 L30.5191104,75.1340976 L30.0232431,74.6319674 C26.680483,75.8364164 23.7724317,76.3656325 21.271576,76.1907556 C18.3579908,75.9870179 15.9265478,74.614795 14.0776895,72.201432 L14.0776895,72.201432 L13.920163,71.9867176 L13.4208838,72.0273191 C11.4882283,72.1349354 9.70221066,71.7590836 8.10236126,70.8818665 L8.10236126,70.8818665 L7.67068413,70.6301814 C6.14479561,69.6862703 5.20145018,68.2783269 4.79168846,66.5007308 L4.79168846,66.5007308 L4.73191417,66.2169808 L4.41674894,66.2597408 C3.08948443,66.4016119 1.74074611,66.0694467 0.437298183,65.238167 L0.437298183,65.238167 L0.112418387,65.0199344 C-2.35653766,63.2767337 -3.80539897,61.0158515 -4.04398279,58.3289919 C-4.11413791,57.538926 -3.81549058,56.7599262 -3.23967069,56.2310027 C3.69144429,49.8643764 9.49978643,46.4934301 14.3867515,46.2345976 L14.3867515,46.2345976 L15.4634041,46.186216 L16.4356006,46.1611859 L17.3061319,46.1601624 C17.9037888,46.1683178 18.42278,46.1960941 18.8679565,46.2446296 C19.8966927,34.3842425 27.9175064,25.9066791 37.8495014,24.9937701 C43.2970142,24.4930567 48.0763025,26.8610824 52.0767668,31.804157 L52.0767668,31.804157 L52.1008887,31.8380536 Z M65.7773424,31.4285793 C61.8887989,31.07116 58.4214222,33.3019883 55.1755965,38.6495849 L55.234928,38.5520165 L55.208887,38.6358355 C54.4381849,40.7574285 51.3244241,41.8247595 49.6329633,39.6074981 L49.5198846,39.4512053 L49.3732694,39.2213898 L49.049749,38.675442 C45.7883941,33.3019883 42.3210174,31.07116 38.4324739,31.4285793 C30.7433817,32.1353297 24.5140979,39.696516 25.2246222,50.5021777 C25.7152959,57.964349 28.7393594,63.9071429 33.8927983,69.3686536 L33.8927983,69.3686536 L34.7549363,70.2627579 L35.3237131,70.8285257 L35.9142439,71.395697 L36.5492769,71.9862529 L37.6350292,72.9640168 L39.4507722,74.5547064 C42.3014082,77.0308131 46.2339263,79.221685 51.2470174,81.0916526 L51.2470174,81.0916526 L52.1491219,81.4190819 L53.1439557,81.0523218 C57.7326071,79.3115518 61.4097358,77.3004059 64.1794268,75.0423469 L64.1794268,75.0423469 L64.7590441,74.5547064 L66.5747871,72.9640168 L67.6605394,71.9862529 L68.2955724,71.395697 L68.5363736,71.1632271 C68.6674179,70.9175754 68.8432048,70.6887226 69.0655972,70.4883193 C69.5906978,70.015138 70.0946015,69.5491101 70.5773346,69.0903913 C75.5717291,63.7062781 78.5027949,57.8385106 78.9851941,50.5021777 C79.6957184,39.696516 73.4664346,32.1353297 65.7773424,31.4285793 Z M85.2796647,52.214676 L85.2373946,52.6191805 C84.4117016,60.0733222 81.4367704,66.2832478 76.7280592,71.8510345 C78.260307,72.220092 79.596284,72.3613225 80.7294603,72.2820831 C81.9113047,72.1994405 82.9167086,71.7700603 83.791448,70.9359055 L83.5054434,70.7348638 L83.2980408,70.5733711 C82.3088892,69.7183078 82.0425887,68.1727483 82.7209497,66.9943096 C83.4445346,65.7373084 84.9689275,65.3740098 86.1257765,66.1828596 L86.1257765,66.1828596 L88.7495014,68.017325 L88.8423512,68.0900378 C90.1622061,68.2227365 91.2539974,67.9892403 92.1787617,67.4171832 C92.8475922,67.0034462 93.1533067,66.022029 92.8689768,64.0354792 L87.4929819,59.6095033 L87.2925372,59.4254673 C86.4097765,58.522736 86.2673455,57.0296723 87.0021747,55.9634808 C87.7894918,54.8211327 89.2857268,54.6014004 90.3441091,55.472695 L90.3441091,55.472695 L98.6942959,62.346857 C98.9479393,62.3001167 99.2065341,62.1706669 99.4941943,61.9675651 L99.8178888,61.7278088 C100.43558,61.2468885 100.876404,60.7568852 101.164134,60.2463358 L101.279431,60.0236157 L101.163391,59.9208449 C95.5508369,54.9724469 91.02032,52.4585942 87.735583,52.2846218 L86.8139481,52.2427643 L85.9944008,52.2196758 L85.2796647,52.214676 Z M17.069392,51.1464243 L16.3546559,51.1514241 L15.5351086,51.1745126 L14.6134737,51.2163701 C11.3287366,51.3903424 6.79821978,53.9041952 1.18566531,58.8525932 L1.18566531,58.8525932 L1.06962563,58.955364 L1.18492235,59.1780841 C1.47265261,59.6886334 1.91347685,60.1786367 2.53116791,60.659557 L2.53116791,60.659557 L2.8548624,60.8993134 C2.93997705,60.9594084 3.02254708,61.0130552 3.10319713,61.0600194 L3.2777728,60.912332 L13.026944,53.5098421 C14.2063277,52.6143428 15.8822133,52.8506151 16.7701393,54.0375709 C17.5988702,55.1453964 17.4482988,56.6898294 16.4656567,57.6189041 L16.2424085,57.8081895 L9.48381004,62.9413414 C9.1931068,64.9452595 9.49856575,65.9334013 10.170295,66.3489315 C10.8216813,66.7518775 11.5559384,66.9868458 12.3943974,67.0441787 C12.5663053,66.6499085 12.8324511,66.2951388 13.1845425,66.01593 L13.4079565,65.8565508 L16.2355094,64.0477333 C17.4822298,63.2501922 19.1338034,63.6209345 19.9244022,64.8758095 C20.6655886,66.0522548 20.3869286,67.5881174 19.3219349,68.4326584 L19.0985208,68.5920376 L18.0199819,69.2838746 C19.0151857,70.5047902 20.1879328,71.1137197 21.6195964,71.2138313 C22.9497576,71.3068453 24.5593553,71.0960766 26.4374169,70.5700158 C25.4323166,69.2863646 24.5175287,67.9684926 23.6979285,66.6084291 C21.5608883,63.9995536 20.1012009,61.5594624 19.3221054,59.2621384 L19.3221054,59.2621384 L19.1702865,58.7877306 C18.3102376,55.9278596 17.7361084,53.5509535 17.451812,51.6256639 L17.451812,51.6256639 L17.3866046,51.1504951 C17.2853855,51.1484222 17.179629,51.1470606 17.069392,51.1464243 L17.069392,51.1464243 Z" id="Combined-Shape" transform="translate(51.174528, 56.499445) rotate(-21.000000) translate(-51.174528, -56.499445) "></path>
            </g>
        </g>
    </g>
</svg>