<svg xmlns="http://www.w3.org/2000/svg" width="104" height="104" viewBox="0 0 104 104">
    <g fill="none" fill-rule="evenodd">
        <g>
            <g transform="translate(-1806.000000, -3435.000000) translate(1806.000000, 3435.000000)">
                <path fill="#FFF" d="M44.396 37.886c.277 0 .5.224.5.5v48.4c0 .276-.223.5-.5.5H8.346c-.276 0-.5-.224-.5-.5v-48.4c0-.276.224-.5.5-.5h36.05zM36.075 48.47H18.432v26.465h17.643V48.47zm-5.573 5.57v15.321h-6.5V54.041h6.5z"/>
                <path fill="#D8D8D8" d="M48.425 53.764H53.717999999999996V59.057H48.425zM48.425 64.35H53.717999999999996V69.643H48.425z"/>
                <rect width="37.05" height="15.879" x="7.846" y="16.714" fill="#FFF" rx=".5"/>
                <path fill="#FFF" d="M93.796 37.886c.277 0 .5.224.5.5v48.4c0 .276-.223.5-.5.5h-36.05c-.276 0-.5-.224-.5-.5v-48.4c0-.276.224-.5.5-.5h36.05zm-13.939 10.4H68.714v5.571h5.571v20.429h5.572v-26z"/>
                <rect width="37.05" height="15.879" x="57.246" y="16.714" fill="#FFF" rx=".5"/>
            </g>
        </g>
    </g>
</svg>
