<svg xmlns="http://www.w3.org/2000/svg" width="104" height="104" viewBox="0 0 104 104">
    <g fill="none" fill-rule="evenodd">
        <g fill="#FFF">
            <g>
                <path fill-rule="nonzero" d="M48.286 29.714c7.18 0 13 5.82 13 13 0 6.057-4.143 11.147-9.75 12.59V91c0 1.795-1.455 3.25-3.25 3.25-1.705 0-3.104-1.313-3.24-2.983l-.01-.267V55.305c-5.607-1.443-9.75-6.533-9.75-12.59 0-7.18 5.82-13 13-13zM28.885 9.646c.826 1.593.205 3.554-1.388 4.381-10.289 5.341-16.818 15.65-16.818 27.05 0 11.107 6.198 21.192 16.075 26.65 1.57.868 2.14 2.845 1.272 4.416-.868 1.571-2.845 2.141-4.416 1.273-11.909-6.58-19.431-18.82-19.431-32.34 0-13.873 7.921-26.38 20.324-32.818 1.593-.827 3.555-.206 4.382 1.388zm40.66 0c.827-1.594 2.788-2.215 4.382-1.388C86.329 14.696 94.25 27.203 94.25 41.076c0 13.52-7.523 25.76-19.432 32.34-1.57.868-3.548.298-4.416-1.273-.868-1.57-.298-3.548 1.273-4.416 9.876-5.458 16.075-15.543 16.075-26.65 0-11.4-6.53-21.709-16.819-27.05-1.593-.827-2.214-2.788-1.387-4.381zM38.154 18.9c.844 1.584.244 3.552-1.34 4.397-6.895 3.675-11.278 10.78-11.278 18.646 0 7.666 4.16 14.617 10.78 18.373 1.562.886 2.11 2.87 1.224 4.43-.886 1.562-2.87 2.11-4.43 1.224-8.63-4.897-14.074-13.99-14.074-24.027 0-10.298 5.733-19.592 14.721-24.383 1.584-.844 3.553-.244 4.397 1.34zm20.264 0c.845-1.584 2.813-2.184 4.397-1.34 8.988 4.791 14.721 14.085 14.721 24.383 0 10.036-5.443 19.13-14.073 24.027-1.561.885-3.545.338-4.43-1.223-.886-1.561-.339-3.545 1.222-4.43 6.62-3.757 10.781-10.708 10.781-18.374 0-7.866-4.383-14.971-11.278-18.646-1.584-.845-2.184-2.813-1.34-4.397zM48.286 36.214c-3.59 0-6.5 2.91-6.5 6.5s2.91 6.5 6.5 6.5 6.5-2.91 6.5-6.5-2.91-6.5-6.5-6.5z" transform="translate(-1806.000000, -2481.000000) translate(1806.000000, 2481.000000)"/>
                <path d="M89.731 83.544c1.205 0 1.64-.83.92-1.856l-8.557-12.197c-.734-1.046-1.886-1.025-2.605 0l-8.557 12.197c-.734 1.046-.308 1.856.92 1.856h4.475v18.183c0 1.255.99 2.273 2.253 2.273h4.423c1.244 0 2.253-1.033 2.253-2.273V83.544h4.475z" transform="translate(-1806.000000, -2481.000000) translate(1806.000000, 2481.000000) translate(80.785714, 86.357143) rotate(90.000000) translate(-80.785714, -86.357143)"/>
            </g>
        </g>
    </g>
</svg>
