<svg xmlns="http://www.w3.org/2000/svg" width="104" height="104" viewBox="0 0 104 104">
    <path fill="#FFF" d="M87.617 34.108c1.717-.47 3.19.614 3.782 2.147 3.334 8.548 3.743 18.26 1.146 27.074-3.947 13.394-14.56 24.17-27.872 28.362-12.445 3.952-26.12 1.652-36.705-5.625l1.37 6.627c.328 1.636-.47 3.313-2.147 3.783-1.533.409-3.455-.532-3.783-2.147-1.042-5.05-2.085-10.081-3.128-15.132-.41-2.024.88-3.762 2.965-3.885 5.153-.307 10.285-.593 15.438-.88 1.718-.102 3.006 1.493 3.068 3.068.081 1.718-1.473 2.985-3.068 3.067-2.45.146-4.896.287-7.341.426 4.45 3.135 9.533 5.204 15.214 6.118.055 0 .418.054.57.078l.017.003.044.006c.117.013.268.03.329.034l.022.001c.49.062.981.103 1.472.143.88.062 1.779.103 2.658.103 1.636 0 3.272-.082 4.887-.266.157-.016.576-.08.518-.072l-.017.002.358-.053 1.104-.184c.757-.143 1.534-.327 2.29-.511 1.555-.389 3.068-.88 4.56-1.452.205-.082.43-.164.635-.245l.073-.027.017-.006.482-.223.552-.256c.655-.306 1.288-.633 1.922-.981 1.35-.716 2.638-1.513 3.886-2.393.368-.265.715-.531 1.083-.797l.14-.103.034-.025.113-.092.143-.107c.572-.47 1.165-.961 1.717-1.472 1.166-1.043 2.25-2.148 3.272-3.334.266-.306.532-.613.777-.92.123-.184.266-.347.41-.531l-.015.018c-.078.106-.291.402.035-.039.429-.572.858-1.145 1.247-1.738.859-1.247 1.636-2.576 2.331-3.926.368-.716.716-1.452 1.043-2.188.155-.38.116-.305.063-.181l-.015.034.075-.19.122-.317c.143-.348.266-.675.389-1.023.552-1.493 1.002-3.047 1.35-4.6.183-.819.347-1.637.47-2.455l.051-.342c-.011.08-.017.123-.002.01l.006-.047.002-.011v-.003l.01-.076.015-.103c.04-.368.081-.757.122-1.125.164-1.738.205-3.476.143-5.214-.143-4.09-1.022-8.077-2.576-12.044-.614-1.534.675-3.354 2.127-3.763zM78.25 7.525c1.493-.409 3.497.512 3.783 2.147.9 5.072 1.82 10.143 2.72 15.214.347 1.984-.839 3.824-2.965 3.885-5.153.143-10.306.307-15.46.45-1.717.041-2.985-1.452-3.067-3.067-.081-1.697 1.473-3.027 3.068-3.067 2.546-.071 5.091-.147 7.637-.223-1.065-.818-2.186-1.577-3.404-2.313-3.538-2.127-6.605-3.374-10.736-4.315-3.333-.756-6.482-1.002-10.204-.797-.797.04-1.595.102-2.392.204-.082.02-.675.103-.286.041.388-.061-.205.02-.287.041-.409.061-.818.123-1.227.205-1.533.286-3.046.674-4.54 1.145-.735.245-1.471.49-2.187.777-.184.061-.348.143-.511.204-.03.008-.116.04-.2.074l-.047.019.044-.019c.23-.106-.38.153-.446.188-.17.086-.333.147-.496.229-1.37.654-2.72 1.37-4.029 2.168-.634.388-1.288.817-1.901 1.247-.328.225-.655.45-.982.695-.143.102-.286.225-.43.327l.068-.052.041-.033-.041.033-.026.02-.024.018.051-.038-.014.011-.075.062c-1.165.96-2.31 1.942-3.374 3.026-1.063 1.063-2.065 2.209-3.006 3.395l.103-.128c-.08.11-.403.528-.495.656l-.017.024c-.204.286-.409.593-.613.879-.43.634-.839 1.268-1.227 1.922-.777 1.309-1.493 2.658-2.127 4.049-.082.204-.184.409-.266.613-.184.45.184-.43 0 .02-.122.348-.265.676-.388 1.023-.286.716-.532 1.452-.757 2.188-.45 1.493-.818 3.027-1.104 4.56-.082.43-.143.839-.204 1.248l.015-.106-.002.012-.003.034-.01.08-.062.552c-.102.798-.163 1.595-.204 2.393-.205 4.048.184 7.709 1.227 11.573.43 1.616-.532 3.334-2.127 3.763-1.595.43-3.354-.552-3.783-2.147-2.29-8.466-1.983-17.709 1.145-25.929 4.887-12.862 15.848-22.882 29.221-26.215 12.365-3.079 25.557-.292 35.617 7.201l-1.14-6.383c-.287-1.656.428-3.312 2.146-3.783z"/>
</svg>
