<svg xmlns="http://www.w3.org/2000/svg" width="104" height="104" viewBox="0 0 104 104">
    <path fill="#FFF" d="M83.575 0c6.722 0 11.858 6.189 12.065 13.597l.006.464V89.94c0 7.456-4.998 13.797-11.653 14.053l-.418.008H55.718c-6.723 0-11.858-6.189-12.065-13.597l-.007-.464v-18.13c0-2.05 1.663-3.714 3.715-3.714 1.958 0 3.562 1.515 3.704 3.437l.01.278v18.129c0 3.68 2.115 6.43 4.39 6.622l.253.01h27.857c2.284 0 4.48-2.618 4.634-6.227l.009-.405V14.06c0-3.68-2.115-6.43-4.39-6.622l-.253-.01H55.718c-2.284 0-4.48 2.618-4.635 6.227l-.008.405v18.13c0 2.05-1.663 3.714-3.714 3.714-1.959 0-3.563-1.515-3.705-3.437l-.01-.278V14.061C43.646 6.605 48.645.264 55.3.008L55.718 0h27.857zM35.013 26.976c1.433 1.313 1.6 3.491.435 5.003l-.207.245-14.724 16.062H54.79c1.958 0 3.562 1.515 3.704 3.437l.01.277c0 1.958-1.515 3.562-3.437 3.704l-.277.01H20.518L35.24 71.776l.207.245c1.165 1.512.998 3.69-.435 5.003-1.512 1.386-3.861 1.284-5.248-.228L9.483 54.669c-.261-.257-.482-.55-.658-.869-.056-.1-.106-.202-.152-.306-.006-.018-.014-.035-.021-.052-.015-.032-.028-.065-.04-.098l-.024-.063c-.031-.083-.058-.167-.083-.251l-.006-.022c-.306-1.068-.146-2.276.632-3.275.062-.079.127-.156.195-.231l.01-.012 20.43-22.286c1.386-1.512 3.735-1.614 5.247-.228z"/>
</svg>
