<svg xmlns="http://www.w3.org/2000/svg" width="104" height="104" viewBox="0 0 104 104">
    <path fill="#FFF" d="M52 13c-8.935 0-16.224 7.188-16.224 16v24c0 8.812 7.289 16 16.224 16s16.224-7.188 16.224-16V29c0-8.812-7.289-16-16.224-16zm0 6c5.67 0 10.14 4.408 10.14 10v24c0 5.592-4.47 10-10.14 10-5.67 0-10.14-4.408-10.14-10V29c0-5.592 4.47-10 10.14-10zM29.724 45.98c-1.624-.016-3.107 1.461-3.073 3.063v4.02c0 12.784 9.746 23.33 22.307 24.812V85H41.86c-1.68 0-3.042 1.343-3.042 3s1.362 3 3.042 3h20.28c1.68 0 3.042-1.343 3.042-3s-1.362-3-3.042-3h-7.098v-7.125C67.603 76.393 77.35 65.847 77.35 53.062v-4.02C77.372 47.459 75.915 46 74.308 46c-1.608 0-3.065 1.458-3.042 3.043v4.02c0 10.577-8.54 19-19.266 19-10.726 0-19.266-8.423-19.266-19v-4.02c.034-1.581-1.406-3.046-3.01-3.063z"/>
</svg>
