<svg xmlns="http://www.w3.org/2000/svg" width="104" height="104" viewBox="0 0 104 104">
    <path fill="#FFF" d="M73.962 40.857h-20.98c.1 0 4.718-25.699 5.019-27.104.2-.803.401-1.707.401-2.61 0-2.008-1.405-3.714-3.112-3.714-1.104 0-2.108.702-2.71 1.807-.502 1.003-5.722 10.841-7.127 13.652-1.807 3.413-3.514 6.826-5.32 10.24-1.808 3.413-3.514 6.826-5.321 10.34-1.406 2.81-7.128 13.953-7.128 13.953-.903 1.706-.502 4.015 1.004 5.12.502.401 1.104.602 1.606.602h20.981c-.1 0-5.42 28.81-5.42 29.011-.302 2.008.802 3.915 2.408 4.317.201 0 .402.1.603.1 1.004 0 1.907-.602 2.51-1.606 0 0 8.934-17.567 9.938-19.475 1.003-2.007 2.007-4.015 3.112-6.023 1.003-2.008 2.007-4.015 3.011-5.923.904-1.807 1.908-3.714 2.811-5.52.803-1.607 1.606-3.213 2.51-4.82.602-1.204 3.614-6.625 3.614-6.625.3-.602.401-1.204.401-1.807.2-2.208-1.104-3.915-2.81-3.915z"/>
</svg>
