<svg xmlns="http://www.w3.org/2000/svg" width="104" height="104" viewBox="0 0 104 104">
    <g fill="#FFF" fill-rule="evenodd">
        <path fill-rule="nonzero" d="M51.998 13c-1.958 0-3.546 1.587-3.546 3.546 0 1.958 1.588 3.545 3.546 3.545 14.914-.006 27.844 10.316 31.144 24.86 3.3 14.544-3.91 29.435-17.366 35.865-13.456 6.431-29.572 2.688-38.816-9.015-9.244-11.703-9.153-28.248.219-39.848v5.866c0 1.958 1.587 3.546 3.546 3.546 1.958 0 3.545-1.588 3.545-3.546V23.637c0-.94-.373-1.843-1.038-2.508s-1.567-1.038-2.507-1.038H16.542c-1.958 0-3.545 1.588-3.545 3.546 0 1.958 1.587 3.545 3.545 3.545h5.375c-11.617 14.083-11.91 34.34-.705 48.752 11.204 14.413 30.908 19.124 47.42 11.34 16.512-7.786 25.415-25.984 21.425-43.798C86.067 25.66 70.254 12.999 51.998 13z"/>
        <path d="M45.184 37.206L66.5 50.926c.464.298.598.917.3 1.382-.075.116-.173.215-.288.291L45.196 66.754c-.46.306-1.08.18-1.386-.28-.11-.164-.167-.356-.167-.553V38.047c0-.552.448-1 1-1 .192 0 .38.055.541.16z"/>
    </g>
</svg>
