<svg xmlns="http://www.w3.org/2000/svg" width="104" height="104" viewBox="0 0 104 104">
    <g fill="none" fill-rule="evenodd">
        <g fill="#FFF">
            <g>
                <path fill-rule="nonzero" d="M63.143 7.429c2.051 0 3.714 1.663 3.714 3.714s-1.663 3.714-3.714 3.714h-7.429l.002 5.746C75.3 22.454 90.667 38.787 90.995 58.777l.005.652c0 21.539-17.46 39-39 39s-39-17.461-39-39c0-20.287 15.489-36.956 35.286-38.826v-5.746h-7.429c-2.051 0-3.714-1.663-3.714-3.714s1.663-3.714 3.714-3.714h22.286zM52 27.712L48.984 28c-16.12 1.523-28.555 15.114-28.555 31.43C20.429 76.865 34.564 91 52 91c17.236 0 31.246-13.812 31.566-30.913l.006-.598-.005-.59c-.26-15.884-12.304-29.049-27.931-30.835l-.619-.065L52 27.712z" transform="translate(-1806.000000, -3594.000000) translate(1806.000000, 3594.000000)"/>
                <path d="M65.263 43.891L45.644 58.375c-.444.328-.538.955-.21 1.399.056.076.123.144.198.201l19.62 14.945c.439.334 1.066.25 1.4-.19.133-.174.205-.387.205-.606V44.696c0-.553-.448-1-1-1-.214 0-.422.068-.594.195z" transform="translate(-1806.000000, -3594.000000) translate(1806.000000, 3594.000000) translate(55.714286, 59.428571) scale(-1, 1) translate(-55.714286, -59.428571)"/>
            </g>
        </g>
    </g>
</svg>
