<svg xmlns="http://www.w3.org/2000/svg" width="104" height="104" viewBox="0 0 104 104">
    <path fill="#FFF" d="M52 21.49c19.374 0 36.472 11.861 42.549 29.517.22.643.22 1.343 0 1.986C88.472 70.649 71.374 82.51 52 82.51S15.528 70.65 9.451 52.992c-.22-.642-.22-1.343 0-1.985C15.528 33.351 32.626 21.49 52 21.49zm0 6.102c-16.402 0-30.9 9.764-36.42 24.408C21.1 66.644 35.598 76.408 52 76.408S82.9 66.644 88.42 52C82.9 37.356 68.402 27.592 52 27.592zm0 6.102c10.095 0 18.306 8.211 18.306 18.306S62.095 70.306 52 70.306 33.694 62.095 33.694 52 41.905 33.694 52 33.694zm0 6.102c-6.73 0-12.204 5.474-12.204 12.204S45.27 64.204 52 64.204 64.204 58.731 64.204 52c0-6.73-5.474-12.204-12.204-12.204z"/>
</svg>
