<?xml version="1.0" encoding="UTF-8"?>
<svg width="104px" height="104px" viewBox="0 0 104 104" version="1.1" xmlns="http://www.w3.org/2000/svg" xmlns:xlink="http://www.w3.org/1999/xlink">
    <title>A1212460-DCA8-4B8E-8953-7A6B64F312D2</title>
    <g id="design-system" stroke="none" stroke-width="1" fill="none" fill-rule="evenodd">
        <g id="editor" transform="translate(-1584.000000, -4701.000000)" fill="#FFFFFF" fill-rule="nonzero">
            <g id="Action-Icon-/-kill" transform="translate(1584.000000, 4701.000000)">
                <path d="M53.5538206,1.85714286 C79.3980769,2.37871262 94.7129425,20.0142717 94.7129425,45.3110691 L94.7129425,45.3110691 L94.7063776,47.7793486 L94.6847035,50.0366563 L94.644951,52.0983882 L94.6069396,53.3718259 L94.5586939,54.5697455 L94.4993344,55.6967088 L94.4279811,56.7572776 L94.3437544,57.7560136 C94.328595,57.9175703 94.3128625,58.0767407 94.2965386,58.2336199 L94.2965386,58.2336199 L94.1913522,59.1481602 L94.071093,60.0122722 L93.9348812,60.8305178 C93.8626406,61.2289343 93.7840878,61.6118615 93.6987281,61.9818654 C93.0159193,64.9415974 91.001383,67.9742405 87.6681582,71.7364693 C87.5378823,71.8835125 87.4059241,72.0312815 87.2718912,72.1802305 L87.2718912,72.1802305 L86.4396578,73.0917167 L85.5387935,74.0533186 L84.55046,75.0868329 L81.811371,77.8978361 L81.813192,98.4034216 C81.813192,100.361571 80.2979174,101.965799 78.3759835,102.107529 L78.3759835,102.107529 L78.0987749,102.117707 L66.3685253,102.116894 C66.223812,102.134025 66.0765491,102.142836 65.9272282,102.142836 C65.7787303,102.142836 65.6322677,102.134122 65.488324,102.117176 L53.9115139,102.114979 L53.7575352,102.132552 L53.4789822,102.142836 L27.75555,102.142836 C25.7042067,102.142836 24.0412643,100.479894 24.0412643,98.4285504 L24.0412643,98.4285504 L24.0412282,77.8978361 L22.1532726,75.9608916 L20.3156629,74.0533186 L19.4147986,73.0917167 C19.2708971,72.9362315 19.1298552,72.7828345 18.9912804,72.6310715 L18.9912804,72.6310715 L18.1862981,71.7364693 C14.8530734,67.9742405 12.838537,64.9415974 12.1557283,61.9818654 C11.8381718,60.6053717 11.6123755,58.964274 11.455764,57.0050062 L11.455764,57.0050062 L11.3699187,55.7908366 C11.3569347,55.5819687 11.3445973,55.3698121 11.3328841,55.154313 L11.3328841,55.154313 L11.2699137,53.8207812 L11.2208386,52.4044607 L11.1845752,50.9027802 L11.16004,49.3131687 L11.1428571,46.7582562 L11.146104,44.554428 C11.4488907,19.661769 26.7161513,2.37333314 52.3006959,1.86868181 L52.3006959,1.86868181 L52.0116567,1.87569325 L52.0974584,1.86741502 L52.387976,1.85714286 Z M53.4119425,9.2838361 L52.613371,9.2838361 L52.4471949,9.29580854 C31.0985414,9.71690756 18.8413451,23.5637478 18.5745326,44.6036325 L18.5745326,44.6036325 L18.5700837,45.3076175 L18.5744486,47.54343 L18.5970705,49.8172558 L18.6241171,51.2334268 L18.6613844,52.5693044 L18.7094284,53.8244402 L18.7688048,54.998386 L18.8400696,56.0906932 L18.9237786,57.1009137 C18.9538174,57.4239228 18.9860228,57.7331761 19.0204876,58.0285989 L19.0204876,58.0285989 L19.1307525,58.8733005 L19.2551291,59.6345702 C19.2990017,59.8743716 19.3453189,60.100193 19.3941734,60.3119596 C19.7152582,61.7037475 21.1923908,63.9273937 23.746531,66.8102654 L23.746531,66.8102654 L24.1095481,67.2167299 L24.8789262,68.0590457 L25.7204268,68.9569732 L26.651247,69.9302271 L30.4321371,73.8144389 C31.097926,74.5064327 31.4698358,75.429391 31.4698358,76.3896671 L31.4698358,76.3896671 L31.4697996,94.7142647 L36.2128571,94.7141429 L36.2129425,83.5714075 C36.2129425,81.5200642 37.8758848,79.8571218 39.9272282,79.8571218 C41.8853286,79.8571218 43.4895348,81.3723234 43.6313261,83.294206 L43.6415139,83.5714075 L43.6408571,94.7141429 L49.2128571,94.7141429 L49.2129425,83.5714075 C49.2129425,81.5200642 50.8758848,79.8571218 52.9272282,79.8571218 C54.8853286,79.8571218 56.4895348,81.3723234 56.6313261,83.294206 L56.6415139,83.5714075 L56.6408571,94.6881429 L62.2128571,94.6881429 L62.2129425,83.5714075 C62.2129425,81.5200642 63.8758848,79.8571218 65.9272282,79.8571218 C67.8853286,79.8571218 69.4895348,81.3723234 69.6313261,83.294206 L69.6415139,83.5714075 L69.6408571,94.6881429 L74.3827996,94.6882647 L74.3846206,76.3896671 C74.3846206,75.5360883 74.6784752,74.7119953 75.2113811,74.0533921 L75.2113811,74.0533921 L75.4223192,73.8144389 L78.3684204,70.7892537 L80.1340295,68.9569732 L80.9755302,68.0590457 L81.7449083,67.2167299 L82.5236296,66.3359204 C84.8226233,63.6828894 86.1570362,61.626426 86.4602829,60.3119596 C86.5060727,60.1134775 86.5495255,59.9055426 86.5907417,59.6877515 L86.5907417,59.6877515 L86.7077807,59.004407 C86.7262022,58.8854537 86.7440897,58.7639357 86.7614556,58.6398025 L86.7614556,58.6398025 L86.8594922,57.8632173 C86.8748219,57.7284216 86.889655,57.5909099 86.9040042,57.4506318 L86.9040042,57.4506318 L86.9843914,56.575363 L87.0537639,55.6312812 L87.112723,54.6159674 L87.16187,53.5270025 L87.2018063,52.3619673 L87.2457558,50.466491 L87.2723633,48.3862492 L87.2843694,45.3110691 C87.2843694,23.8738213 74.993092,9.72001919 53.4119425,9.2838361 L53.4119425,9.2838361 Z M37.1415139,33.4285504 C44.3212156,33.4285504 50.1415139,40.0803198 50.1415139,48.2856932 C50.1415139,56.4910667 44.3212156,63.1428361 37.1415139,63.1428361 C29.9618121,63.1428361 24.1415139,56.4910667 24.1415139,48.2856932 C24.1415139,40.0803198 29.9618121,33.4285504 37.1415139,33.4285504 Z M70.5700853,33.4285504 C77.7497871,33.4285504 83.5700853,40.0803198 83.5700853,48.2856932 C83.5700853,56.4910667 77.7497871,63.1428361 70.5700853,63.1428361 C63.3903836,63.1428361 57.5700853,56.4910667 57.5700853,48.2856932 C57.5700853,40.0803198 63.3903836,33.4285504 70.5700853,33.4285504 Z M37.1415139,40.8571218 C34.3015165,40.8571218 31.5700853,43.9787574 31.5700853,48.2856932 C31.5700853,52.5926291 34.3015165,55.7142647 37.1415139,55.7142647 C39.9815113,55.7142647 42.7129425,52.5926291 42.7129425,48.2856932 C42.7129425,43.9787574 39.9815113,40.8571218 37.1415139,40.8571218 Z M70.5700853,40.8571218 C67.7300879,40.8571218 64.9986567,43.9787574 64.9986567,48.2856932 C64.9986567,52.5926291 67.7300879,55.7142647 70.5700853,55.7142647 C73.4100827,55.7142647 76.1415139,52.5926291 76.1415139,48.2856932 C76.1415139,43.9787574 73.4100827,40.8571218 70.5700853,40.8571218 Z" id="Combined-Shape"></path>
            </g>
        </g>
    </g>
</svg>