<svg xmlns="http://www.w3.org/2000/svg" width="104" height="104" viewBox="0 0 104 104">
    <path fill="#FFF" d="M66.857 11.143c6.217 0 10.994 5.15 11.14 11.938L78 23.4v57.2c0 6.839-4.681 12.093-10.852 12.253l-.29.004H37.142c-6.217 0-10.994-5.15-11.14-11.938L26 80.6V23.4c0-6.839 4.681-12.093 10.852-12.253l.29-.004h29.715zm0 8.171H37.143c-2.16 0-3.62 1.534-3.71 3.859l-.004.227v57.2c0 2.375 1.394 3.983 3.507 4.081l.207.005h29.714c2.16 0 3.62-1.534 3.71-3.859l.004-.227V23.4c0-2.451-1.485-4.086-3.714-4.086zm-44.369-2.453c.495 1.361-.136 2.857-1.418 3.467l-.248.103-7.525 2.736c-4.214 1.533-6.446 6.1-5.124 10.337l.126.373 14.19 39.029c.525 1.446-.221 3.043-1.667 3.57-1.36.495-2.856-.137-3.466-1.419l-.104-.248-14.19-39.028c-2.576-7.088.958-14.908 7.91-17.69l.421-.16 7.526-2.736c1.445-.526 3.044.22 3.57 1.666zm59.02 0c.526-1.446 2.125-2.192 3.57-1.666l7.526 2.736.42.16c6.953 2.782 10.487 10.602 7.91 17.69l-14.19 39.028-.103.248c-.61 1.282-2.106 1.914-3.466 1.419-1.446-.527-2.192-2.124-1.666-3.57l14.19-39.03.125-.372c1.322-4.236-.91-8.804-5.124-10.337l-7.525-2.736-.248-.103c-1.282-.61-1.913-2.106-1.418-3.467zM55.715 68.343c2.229 0 3.715 1.634 3.715 4.086 0 2.374-1.395 3.982-3.508 4.08l-.207.005h-7.428c-2.229 0-3.715-1.634-3.715-4.085 0-2.375 1.395-3.983 3.508-4.081l.207-.005h7.428z"/>
</svg>
