<svg xmlns="http://www.w3.org/2000/svg" width="104" height="104" viewBox="0 0 104 104">
    <path fill="#FFF" d="M71.314 14.69c16 0 28.972 12.97 28.972 28.97v4.83c0 16-12.971 28.97-28.972 28.97h-6.893l-8.606 10.146c-1.725 2.033-4.772 2.283-6.805.558-.201-.17-.388-.357-.559-.558L39.846 77.46h-7.16c-16 0-28.972-12.971-28.972-28.972v-4.828c0-16 12.971-28.972 28.972-28.972h38.628zm0 6.897H32.686c-12.014 0-21.787 9.599-22.068 21.545l-.006.529v4.828c0 12.014 9.598 21.787 21.545 22.068l.529.006h7.16c1.89 0 3.692.776 4.99 2.135l.27.3 7.027 8.284L59.16 73c1.224-1.442 2.981-2.315 4.857-2.424l.404-.012h6.893c12.014 0 21.787-9.598 22.068-21.545l.006-.529v-4.828c0-12.014-9.598-21.787-21.545-22.068l-.529-.006zM52 41.665c2.667 0 4.829 2.162 4.829 4.828 0 2.667-2.162 4.829-4.829 4.829s-4.829-2.162-4.829-4.829c0-2.666 2.162-4.828 4.829-4.828zm19.314 0c2.667 0 4.829 2.162 4.829 4.828 0 2.667-2.162 4.829-4.829 4.829-2.666 0-4.828-2.162-4.828-4.829 0-2.666 2.162-4.828 4.828-4.828zm-38.628 0c2.666 0 4.828 2.162 4.828 4.828 0 2.667-2.162 4.829-4.828 4.829-2.667 0-4.829-2.162-4.829-4.829 0-2.666 2.162-4.828 4.829-4.828z"/>
</svg>
