<svg xmlns="http://www.w3.org/2000/svg" width="104" height="104" viewBox="0 0 104 104">
    <g fill="none" fill-rule="evenodd">
        <path fill="#FFF" fill-rule="nonzero" d="M24.308 23.87c.265-.037.527-.04.78-.012l12.796-1.797c.169-.054.345-.095.527-.12.184-.027.365-.036.543-.03l41.865-5.884c3.896-.547 7.484 2.07 8.014 5.844l6.027 42.87c.071.192.123.395.153.606.03.212.036.421.02.626l.9 6.42c.531 3.776-2.196 7.28-6.092 7.827l-11.324 1.592c-.216.082-.444.141-.682.175-.239.033-.474.039-.704.02l-13 1.827c-.13.036-.263.064-.4.083-.137.02-.274.03-.41.03L21.326 89.85c-3.895.548-7.483-2.069-8.013-5.844L7.285 41.121c-.073-.194-.125-.398-.155-.611-.03-.213-.036-.423-.02-.629l-.898-6.398c-.53-3.775 2.197-7.28 6.092-7.827l11.25-1.582c.236-.097.489-.166.754-.204zm4.653 53.747l-10.18 1.43.577 4.109c.07.5.517.859 1.026.845l.119-.01 9.172-1.29-.714-5.084zm14.096-1.981l-8.05 1.131.714 5.084 8.05-1.131-.714-5.084zm16.11-2.264l-10.064 1.414.714 5.084 10.064-1.414-.714-5.084zm14.095-1.981l-8.05 1.131.715 5.084 8.05-1.131-.715-5.084zm16.048-2.256l-10.002 1.406.714 5.084 8.996-1.264c.517-.072.89-.509.88-1.003l-.01-.115-.578-4.108zM56.494 36.56l-42.839 6.02 4.302 30.61 12.515-1.76c.214-.08.441-.139.678-.172.236-.033.47-.04.698-.02l13.014-1.83c.127-.035.257-.062.391-.08.133-.019.265-.03.396-.031l42.838-6.02-4.302-30.61-12.514 1.76c-.215.08-.441.139-.678.172-.236.033-.47.04-.698.02l-13.014 1.83c-.127.035-.258.062-.391.08-.133.02-.265.03-.396.031zm-8.653 6.989c1.165-.165 2.35.016 3.402.517l6.594 3.057c1.796.829 3.036 2.479 3.306 4.394.269 1.916-.469 3.844-1.966 5.136l-5.497 4.755c-.872.772-1.962 1.273-3.127 1.436-3.272.46-6.286-1.738-6.731-4.91l-1.098-7.811c-.446-3.171 1.845-6.114 5.117-6.574zm.55 3.906c-1.047.147-1.78 1.088-1.637 2.102l1.095 7.792c.143 1.014 1.106 1.716 2.152 1.57.367-.053.71-.213.984-.458l5.497-4.755c.477-.406.713-1.015.628-1.622-.086-.606-.48-1.127-1.051-1.386l-6.594-3.056c-.33-.16-.705-.219-1.072-.168zM22.12 30.25l-8.993 1.264c-.557.078-.946.579-.87 1.118l.574 4.088 10.002-1.406-.712-5.064zm14.097-1.981l-8.05 1.131.711 5.064 8.051-1.131-.712-5.064zm16.11-2.264L42.264 27.42l.712 5.064L53.04 31.07l-.712-5.064zm14.095-1.981l-8.05 1.131.712 5.064 8.05-1.131-.712-5.064zm15.22-2.139l-9.174 1.289.712 5.064 10.18-1.43-.573-4.088c-.07-.5-.518-.859-1.027-.845l-.118.01z"/>
        <path stroke="#FFF" stroke-linecap="round" stroke-linejoin="round" stroke-width="3" d="M6.776 82.127c-.247 3.782 1.636 7.99 5.297 10.955 3.814 3.089 8.546 4.01 12.268 2.766M2.66 92.513c-.165 2.522 1.09 5.327 3.532 7.304 2.542 2.059 5.697 2.673 8.178 1.843M98.652 13.344c.165-2.522-1.09-5.327-3.532-7.304-2.542-2.058-5.697-2.672-8.178-1.843M95.367 23.73c.247-3.782-1.636-7.99-5.298-10.955-3.813-3.088-8.545-4.01-12.267-2.765"/>
    </g>
</svg>
