<svg xmlns="http://www.w3.org/2000/svg" width="104" height="104" viewBox="0 0 104 104">
    <path fill="#FFF" d="M78.504 74.19c7.335-5.163 13.04-12.467 16.045-21.197.22-.642.22-1.342 0-1.984C88.47 33.35 71.374 21.489 52 21.489c-7.562 0-14.766 1.829-21.114 5.082L14.494 10.18c-1.191-1.192-3.122-1.192-4.314 0-1.192 1.192-1.192 3.122 0 4.314L25.496 29.81c-7.335 5.164-13.04 12.468-16.045 21.198-.22.642-.22 1.342 0 1.984 8.793 25.549 39.316 36.915 63.663 24.437l16.39 16.391c1.192 1.192 3.123 1.192 4.315 0 1.191-1.192 1.191-3.122 0-4.314L78.504 74.191zM52 27.593c16.402 0 30.9 9.764 36.42 24.409-2.785 7.386-7.858 13.526-14.303 17.802l-7.212-7.212c2.133-2.993 3.4-6.643 3.4-10.59 0-10.095-8.21-18.307-18.305-18.307-3.947 0-7.597 1.268-10.59 3.402l-5.955-5.956c5.057-2.279 10.674-3.548 16.545-3.548zM41.526 45.84L58.16 62.476c-1.814 1.072-3.903 1.729-6.16 1.729-6.73 0-12.204-5.474-12.204-12.204 0-2.257.657-4.345 1.73-6.16zm4.314-4.315c1.815-1.072 3.903-1.729 6.16-1.729 6.73 0 12.204 5.475 12.204 12.205 0 2.256-.657 4.345-1.729 6.16L45.84 41.526zM15.58 52.001c2.785-7.387 7.858-13.527 14.303-17.803l7.212 7.212c-2.133 2.993-3.4 6.643-3.4 10.59 0 10.095 8.21 18.307 18.305 18.307 3.947 0 7.597-1.268 10.59-3.402l5.955 5.956c-20.557 9.258-45.19-.23-52.964-20.86z"/>
</svg>
