<svg xmlns="http://www.w3.org/2000/svg" width="104" height="104" viewBox="0 0 104 104">
    <path fill="#FFF" fill-rule="evenodd" d="M60.182 25.033l24.072 24.562c.729.623 1.14 1.54 1.12 2.498-.004.974-.451 1.893-1.216 2.497L60.182 79.153c-.563.452-1.263.7-1.986.704-.477-.003-.947-.112-1.377-.32-1.112-.53-1.821-1.65-1.825-2.882V65.283h-24.06c-1.768 0-3.202-1.434-3.202-3.202V42.104c0-1.768 1.434-3.202 3.203-3.202H54.77V27.53c-.076-1.314.66-2.54 1.855-3.092 1.195-.552 2.606-.316 3.557.595zm-38.004 13.76c.553 0 1 .449 1 1v24.413c0 .552-.447 1-1 1h-2.554c-.552 0-1-.448-1-1V39.794c0-.552.448-1 1-1h2.554z"/>
</svg>
