<svg xmlns="http://www.w3.org/2000/svg" width="104" height="104" viewBox="0 0 104 104">
    <g fill="none" fill-rule="evenodd">
        <g fill="#FFF" fill-rule="nonzero">
            <g>
                <path d="M63.143 7.429c2.051 0 3.714 1.663 3.714 3.714s-1.663 3.714-3.714 3.714h-7.429l.002 5.746C75.3 22.454 90.667 38.787 90.995 58.777l.005.652c0 21.539-17.46 39-39 39s-39-17.461-39-39c0-20.287 15.489-36.956 35.286-38.826v-5.746h-7.429c-2.051 0-3.714-1.663-3.714-3.714s1.663-3.714 3.714-3.714h22.286zM52 27.712L48.984 28c-16.12 1.523-28.555 15.114-28.555 31.43C20.429 76.865 34.564 91 52 91c17.236 0 31.246-13.812 31.566-30.913l.006-.598-.005-.59c-.26-15.884-12.304-29.049-27.931-30.835l-.619-.065L52 27.712z" transform="translate(-1806.000000, -4071.000000) translate(1806.000000, 4071.000000)"/>
                <path d="M51.926 39.464c11.026 0 19.964 8.939 19.964 19.965s-8.938 19.964-19.964 19.964c-11.026 0-19.964-8.938-19.964-19.964 0-3.409.86-6.688 2.446-9.584l-2.1.52c-1.65.407-3.318-.526-3.855-2.107l-.079-.27c-.408-1.65.526-3.318 2.107-3.855l.27-.079 9.729-2.402c1.644-.406 3.307.518 3.85 2.09l.08.269 2.325 9.2c.44 1.74-.614 3.507-2.355 3.947-1.648.416-3.321-.508-3.867-2.086l-.08-.269-.42-1.656c-1.008 1.906-1.551 4.05-1.551 6.282 0 7.436 6.028 13.464 13.464 13.464 7.436 0 13.464-6.028 13.464-13.464 0-7.437-6.028-13.465-13.464-13.465-1.795 0-3.25-1.455-3.25-3.25s1.455-3.25 3.25-3.25z" transform="translate(-1806.000000, -4071.000000) translate(1806.000000, 4071.000000)"/>
            </g>
        </g>
    </g>
</svg>
