<svg xmlns="http://www.w3.org/2000/svg" width="104" height="104" viewBox="0 0 104 104">
    <path fill="#FFF" d="M91.155 66.238c1.876 0 3.414 1.452 3.55 3.294l.01.266v20.289c0 2.399-1.82 4.463-4.251 4.618l-.295.01H69.798c-1.966 0-3.56-1.594-3.56-3.56 0-1.877 1.452-3.414 3.294-3.55l.266-.01h17.797V69.798c0-1.877 1.452-3.414 3.294-3.55l.266-.01zm-78.31 0c1.877 0 3.414 1.452 3.55 3.294l.01.266v17.797h17.797c1.877 0 3.414 1.452 3.55 3.294l.01.266c0 1.876-1.452 3.414-3.294 3.55l-.266.01H13.831c-2.478 0-4.393-1.972-4.537-4.342l-.008-.286v-20.29c0-1.965 1.593-3.559 3.56-3.559zM90.202 9.286c2.49 0 4.363 1.994 4.504 4.344l.008.283v20.29c0 1.965-1.593 3.559-3.56 3.559-1.876 0-3.413-1.452-3.549-3.294l-.01-.266V16.405H69.798c-1.877 0-3.414-1.452-3.55-3.294l-.01-.266c0-1.876 1.452-3.414 3.294-3.55l.266-.01h20.404zm-56 0c1.966 0 3.56 1.593 3.56 3.56 0 1.876-1.452 3.413-3.294 3.549l-.266.01H16.405v17.797c0 1.877-1.452 3.414-3.294 3.55l-.266.01c-1.876 0-3.414-1.452-3.55-3.294l-.01-.266V13.913c0-2.507 1.99-4.471 4.405-4.618l.292-.01h20.22z"/>
</svg>
