<svg xmlns="http://www.w3.org/2000/svg" width="104" height="104" viewBox="0 0 104 104">
    <path fill="#FFF" d="M59.429 7.429c6.154 0 11.142 4.988 11.142 11.142v11.972c14.887 3.377 26 16.69 26 32.6 0 18.462-14.966 33.428-33.428 33.428-15.91 0-29.223-11.113-32.6-26H18.57c-6.154 0-11.142-4.988-11.142-11.142V18.57c0-6.154 4.988-11.142 11.142-11.142H59.43zm11.142 30.79v21.21c0 6.154-4.988 11.142-11.142 11.142h-21.21c3.196 10.74 13.146 18.572 24.924 18.572 14.36 0 26-11.64 26-26 0-11.778-7.832-21.728-18.572-24.924zM59.429 14.857H18.57c-1.958 0-3.562 1.515-3.704 3.437l-.01.277V59.43c0 1.958 1.515 3.562 3.437 3.704l.277.01h11.143c0-18.462 14.967-33.429 33.429-33.429V18.571c0-1.958-1.515-3.562-3.437-3.704l-.277-.01zm3.714 22.286c-14.36 0-26 11.64-26 26h22.286c1.958 0 3.562-1.515 3.704-3.437l.01-.277V37.143z"/>
</svg>
