<svg xmlns="http://www.w3.org/2000/svg" width="104" height="104" viewBox="0 0 104 104">
    <path fill="#FFF" d="M51.088 14.857c5.257 0 9.518 4.265 9.518 9.524v25.485s1.075.122 2.346.31c3.639.54 7.282 1.336 10.708 2.447 7.221 2.344 12.568 5.764 15.177 10.677 2.257 4.25 2.617 10.248 1.597 17.634-.521 3.77-1.39 7.763-2.508 11.837-.66 2.401-1.365 4.684-2.072 6.777-.248.735-.904 2.567-.956 2.702-.402 1.054-1.413 1.75-2.54 1.75H41.573c-.83 0-1.616-.38-2.132-1.031L13.611 70.34c-.713-.901-.783-2.154-.174-3.128l1.033-1.652c4.047-6.476 12.304-7.878 18.27-3.106l7.47 5.977.004-44.052c0-5.257 4.261-9.523 9.518-9.523zm0 5.438h-1.356c-2.252 0-4.08 1.83-4.08 4.085v49.712c0 2.28-2.638 3.547-4.418 2.123L29.342 66.7c-3.425-2.74-7.938-1.974-10.26 1.742l23.817 30.12h37.487s.08-.056.316-.754c.675-1.998 1.35-4.183 1.98-6.477 1.06-3.862 1.88-7.63 2.365-11.142.877-6.35.578-11.346-1.012-14.34-1.8-3.388-6.047-6.105-12.054-8.054-3.107-1.009-6.464-1.743-9.826-2.24-1.178-.175-2.271-.307-3.249-.402-.577-.057-.981-.088-1.181-.1-1.436-.086-2.557-1.276-2.557-2.714V24.38c0-2.257-1.827-4.086-4.08-4.086zm17.802 2.738c.997.242 1.608 1.247 1.365 2.244-.653 2.682-1.844 5.192-3.491 7.39-.615.822-1.78.988-2.6.373-.821-.615-.988-1.779-.373-2.6 1.348-1.798 2.322-3.85 2.855-6.042.243-.997 1.248-1.608 2.244-1.365zm-36.222-8.43c1.002.22 1.635 1.211 1.415 2.213-.26 1.182-.391 2.392-.391 3.661.003 1.03.098 2.047.285 3.043.188 1.008-.477 1.979-1.485 2.167-1.008.188-1.978-.476-2.167-1.484-.227-1.218-.344-2.46-.348-3.72 0-1.543.16-3.02.478-4.466.22-1.002 1.212-1.635 2.213-1.414zm33.837-6.75c1.693 2.163 2.936 4.648 3.645 7.315.264.991-.326 2.009-1.318 2.272-.99.263-2.008-.327-2.271-1.318-.58-2.179-1.596-4.21-2.981-5.981-.632-.808-.49-1.976.318-2.607.808-.632 1.975-.49 2.607.318zM44.05 2.874c.444.924.055 2.034-.87 2.478-2.028.974-3.841 2.351-5.328 4.042-.678.77-1.851.845-2.621.167-.77-.677-.845-1.85-.168-2.62 1.815-2.064 4.03-3.747 6.509-4.937.924-.445 2.034-.055 2.478.87zM50.406 0c2.786 0 5.498.56 8.008 1.63.944.402 1.383 1.494.98 2.437-.402.943-1.493 1.382-2.437.98-2.052-.876-4.268-1.333-6.551-1.333-1.026 0-1.857-.831-1.857-1.857S49.38 0 50.406 0z"/>
</svg>
